:SAMPLES-PER-SECOND 30
:FULLY-SPECIFIED
:DEGREES
133
root  -50.9884 41.5211 -2.52156 -82.8875 -88.4792 78.5985
RightUpLeg  2.62088 -7.94765 -3.71862
RightLeg  5.45107 -1.57409 3.83305
RightFoot  -1.65498 0.384405 -4.66244
RightToes  1.74622e-010 0 -3.6325e-017
Spine  -2.05182 -1.15353 3.44884
Spine1  9.92987 -1.10368 -0.419969
HEad  -3.43339 4.14712 -4.74245
LeftShoulder1  4.10417 -6.49056 -34.9573
LeftArm  -11.5076 17.3681 -15.4091
LeftForeArm  24.5921 -14.6379 -3.85243
LeftHand  -0.244104 0.0205437 5.32207
RightShoulder  3.87896 6.38026 33.278
RightArm  -10.471 -16.1529 16.4138
RightForeArm  2.93106 12.2989 5.5469
RightHand  -0.966189 2.00946 -15.2813
LeftUpLeg  2.53498 4.46343 2.82549
LeftLeg  0.976053 5.82052 -3.68745
LeftFoot  0.668223 -0.0163686 -0.00122394
LeftToes  -1.18267e-011 5.39559e-011 -6.19194e-012
134
root  -51.2547 41.537 -2.42155 -89.5345 -88.5362 85.6105
RightUpLeg  2.8685 -7.83118 -3.76983
RightLeg  5.00515 -1.43607 3.69859
RightFoot  -1.92056 0.331045 -4.1717
RightToes  1.74622e-010 0 -3.6325e-017
Spine  -2.42775 -1.21084 3.38828
Spine1  9.08163 -1.17445 -0.454681
HEad  -2.187 4.68415 -4.96794
LeftShoulder1  3.31603 -5.44682 -30.9496
LeftArm  -12.9374 16.4795 -11.5923
LeftForeArm  23.5892 -14.8791 -3.51621
LeftHand  -0.244104 0.0205437 5.32207
RightShoulder  2.99692 5.1321 28.7175
RightArm  -13.7438 -14.6085 12.5227
RightForeArm  1.79142 10.9296 5.07608
RightHand  -0.926819 1.92776 -14.8323
LeftUpLeg  2.76037 4.5317 2.78296
LeftLeg  0.685 5.82192 -3.82906
LeftFoot  0.406055 -0.0193207 0.0329776
LeftToes  -1.18267e-011 5.39559e-011 -6.19194e-012
135
root  -51.4753 41.549 -2.30458 -98.0302 -88.6105 94.4973
RightUpLeg  2.91054 -7.75247 -3.8105
RightLeg  4.73553 -1.26433 3.62046
RightFoot  -2.05835 0.29654 -3.82089
RightToes  1.74622e-010 0 -3.6325e-017
Spine  -2.59266 -1.32778 3.50932
Spine1  8.14132 -1.27723 -0.612491
HEad  -1.40324 5.40389 -5.08898
LeftShoulder1  2.68774 -4.5907 -27.017
LeftArm  -14.8863 16.0745 -7.47613
LeftForeArm  23.5931 -15.7043 -3.05533
LeftHand  -0.244104 0.0205437 5.32207
RightShoulder  2.35172 4.29103 24.0162
RightArm  -15.7819 -12.9709 8.66805
RightForeArm  -0.463492 9.57209 4.73504
RightHand  -0.959934 2.21959 -14.7795
LeftUpLeg  2.7317 4.45282 2.63225
LeftLeg  0.675223 6.13591 -3.78861
LeftFoot  0.0393605 -0.0367807 0.295906
LeftToes  -1.18267e-011 5.39559e-011 -6.19194e-012
136
root  -51.6592 41.5525 -2.19506 -112.765 -88.617 109.478
RightUpLeg  2.92925 -7.65869 -3.8201
RightLeg  4.677 -0.996758 3.516
RightFoot  -2.21932 0.272906 -3.60603
RightToes  1.74622e-010 0 -3.6325e-017
Spine  -2.49687 -1.40784 3.70075
Spine1  7.45181 -1.29818 -0.910389
HEad  -1.36706 6.06825 -5.02797
LeftShoulder1  2.10799 -3.64059 -23.1162
LeftArm  -15.9754 15.5945 -3.85105
LeftForeArm  20.6581 -16.6109 -2.99379
LeftHand  -0.244104 0.0205437 5.32207
RightShoulder  1.821 3.48701 19.5974
RightArm  -16.3283 -10.8578 4.96442
RightForeArm  -3.64711 8.22902 4.71535
RightHand  -1.03407 2.44729 -15.4531
LeftUpLeg  2.70407 4.42713 2.53945
LeftLeg  0.866084 6.58831 -3.75649
LeftFoot  -0.354143 -0.0485975 0.474142
LeftToes  -1.18267e-011 5.39559e-011 -6.19194e-012
137
root  -51.8288 41.5475 -2.11254 -128.913 -88.4457 125.649
RightUpLeg  3.09736 -7.56718 -3.84673
RightLeg  4.74824 -0.641845 3.36755
RightFoot  -2.48625 0.249929 -3.44242
RightToes  1.74622e-010 0 -3.6325e-017
Spine  -2.24196 -1.39551 3.80277
Spine1  7.18352 -1.18842 -1.28368
HEad  -1.80111 6.40988 -4.76549
LeftShoulder1  1.50329 -2.33263 -19.1005
LeftArm  -15.7342 14.4653 -1.39371
LeftForeArm  14.7347 -16.6818 -3.31147
LeftHand  -0.244104 0.0205437 5.32207
RightShoulder  1.2851 2.24543 15.5814
RightArm  -16.5549 -8.34972 1.93
RightForeArm  -7.02611 7.2216 4.86385
RightHand  -1.07837 2.29487 -16.4089
LeftUpLeg  2.91018 4.48871 2.51724
LeftLeg  1.06228 6.95654 -3.7935
LeftFoot  -0.725049 -0.0498103 0.490316
LeftToes  -1.18267e-011 5.39559e-011 -6.19194e-012
